<svg height="512pt" viewBox="-72 0 512 512.00018" width="512pt" xmlns="http://www.w3.org/2000/svg"><path d="m360.207031 183.859375c0-101.132813-85.128906-182.382813-187.636719-176.003906-90.027343 5.605469-162.332031 80.507812-164.992187 170.671875-2.234375 75.828125 43.429687 141.242187 108.96875 168.328125 11.765625 4.863281 19.210937 16.613281 19.210937 29.347656v80.203125c0 8.851562 7.175782 16.03125 16.03125 16.03125h64.128907c8.855469 0 16.03125-7.179688 16.03125-16.03125v-80.210938c0-12.742187 7.464843-24.484374 19.242187-29.355468 63.984375-26.453125 109.015625-89.441406 109.015625-162.980469zm0 0" fill="#ffe07d"/><path d="m215.917969 472.4375h-64.128907c-8.855468 0-16.03125-7.179688-16.03125-16.03125v-80.160156h96.191407v80.160156c0 8.851562-7.175781 16.03125-16.03125 16.03125zm0 0" fill="#c8c5c9"/><path d="m336.160156 183.859375c0 84.113281-68.191406 152.304687-152.304687 152.304687-84.117188 0-152.304688-68.191406-152.304688-152.304687 0-84.117187 68.1875-152.304687 152.304688-152.304687 84.113281 0 152.304687 68.1875 152.304687 152.304687zm0 0" fill="#ffeaa8"/><path d="m272.03125 183.859375c0 48.695313-39.480469 88.175781-88.175781 88.175781-48.699219 0-88.179688-39.480468-88.179688-88.175781 0-48.699219 39.480469-88.179687 88.179688-88.179687 48.695312 0 88.175781 39.480468 88.175781 88.179687zm0 0" fill="#fff5d7"/><path d="m159.804688 472.4375v16.03125c0 8.855469 7.179687 16.03125 16.03125 16.03125h16.03125c8.855468 0 16.035156-7.175781 16.035156-16.03125v-16.03125zm0 0" fill="#5d5360"/><path d="m215.917969 199.890625-32.0625-72.144531-32.066407 72.144531v176.351563h64.128907zm0 0" fill="#ffe07d"/><path d="m151.789062 199.890625v56.113281h32.066407v-128.257812zm0 0" fill="#ffd064"/><path d="m215.917969 207.90625c0 8.851562-7.179688 16.03125-16.03125 16.03125-6.199219 0-11.574219-3.515625-14.242188-8.664062-.71875-1.386719-2.863281-1.386719-3.582031 0-2.667969 5.144531-8.042969 8.664062-14.242188 8.664062-8.851562 0-16.03125-7.179688-16.03125-16.03125v168.335938h64.128907zm0 0" fill="#b3e59f"/><path d="m183.855469 352.195312v-137.960937c-.714844 0-1.429688.34375-1.792969 1.039063-2.667969 5.148437-8.042969 8.664062-14.242188 8.664062-8.851562 0-16.03125-7.179688-16.03125-16.03125v168.335938h64.128907v-24.046876zm0 0" fill="#95d6a4"/><path d="m183.855469 127.746094-21.378907 48.097656h42.753907zm0 0" fill="#5d5360"/><path d="m162.476562 175.84375h21.378907v-48.097656zm0 0" fill="#4b3f4e"/><path d="m135.757812 376.242188v80.160156c0 8.855468 7.175782 16.03125 16.03125 16.03125h16.03125v-96.191406zm0 0" fill="#b6b1b7"/><path d="m352.097656 109.613281c-10.003906-22.636719-24.257812-42.742187-42.367187-59.761719-37.359375-35.105468-86.238281-52.675781-137.625-49.480468-93.691407 5.832031-169.25 83.988281-172.0234378 177.933594-1.1250002 38.195312 9.3554688 75.128906 30.3085938 106.804687 20.40625 30.84375 49.207031 54.589844 83.292969 68.675781 8.851562 3.660156 14.574218 12.457032 14.574218 22.417969v80.203125c0 12.972656 10.554688 23.53125 23.53125 23.53125h.515626v8.53125c0 12.976562 10.558593 23.53125 23.53125 23.53125h16.03125c12.976562 0 23.535156-10.558594 23.535156-23.53125v-8.53125h.515625c12.972656 0 23.53125-10.558594 23.53125-23.53125v-80.210938c0-9.953124 5.734375-18.753906 14.605469-22.425781 33.226562-13.734375 61.523437-36.746093 81.832031-66.539062 20.816406-30.53125 31.816406-66.277344 31.816406-103.375.003906-25.824219-5.246094-50.804688-15.605469-74.242188zm-127.648437 274.128907v17.066406h-8.53125c-4.140625 0-7.5 3.355468-7.5 7.5 0 4.140625 3.359375 7.5 7.5 7.5h8.53125v17.0625h-81.191407v-17.0625h40.597657c4.140625 0 7.5-3.359375 7.5-7.5 0-4.144532-3.359375-7.5-7.5-7.5h-40.597657v-17.066406zm-63.734375-185.46875 6.636718-14.933594h33.003907l6.636719 14.933594c.945312 2.128906 1.425781 4.390624 1.425781 6.71875v2.914062c0 4.703125-3.828125 8.53125-8.53125 8.53125s-8.53125-3.828125-8.53125-8.53125c0-4.144531-3.359375-7.5-7.5-7.5-4.144531 0-7.5 3.355469-7.5 7.5 0 4.703125-3.828125 8.53125-8.535157 8.53125-4.703124 0-8.53125-3.828125-8.53125-8.53125v-2.914062c0-2.328126.480469-4.589844 1.425782-6.71875zm13.304687-29.929688 9.832031-22.132812 9.835938 22.132812zm-14.730469 61.488281c2.648438 1.03125 5.523438 1.605469 8.53125 1.605469 3.007813 0 5.886719-.574219 8.53125-1.605469v10.140625c0 4.140625 3.359376 7.5 7.5 7.5 4.144532 0 7.5-3.359375 7.5-7.5v-10.140625c2.648438 1.03125 5.523438 1.605469 8.53125 1.605469 3.011719 0 5.886719-.574219 8.535157-1.605469v138.914063h-17.066407v-96.710938c0-4.144531-3.355468-7.5-7.5-7.5-4.140624 0-7.5 3.355469-7.5 7.5v96.710938h-17.0625zm41.113282 258.636719c0 4.703125-3.828125 8.53125-8.53125 8.53125h-16.03125c-4.707032 0-8.535156-3.828125-8.535156-8.53125v-8.53125h33.097656zm15.515625-23.53125h-64.128907c-4.703124 0-8.53125-3.828125-8.53125-8.53125v-8.535156h81.191407v8.535156c0 4.703125-3.828125 8.53125-8.53125 8.53125zm107.578125-186.15625c-18.660156 27.375-44.652344 48.511719-75.171875 61.128906-12.207031 5.046875-20.75 15.945313-23.160157 28.832032h-1.746093v-163.75c0-4.441407-.914063-8.753907-2.71875-12.8125l-29.992188-67.480469c-1.203125-2.710938-3.890625-4.453125-6.855469-4.453125-2.960937 0-5.648437 1.742187-6.851562 4.453125l-29.992188 67.480469c-1.804687 4.058593-2.71875 8.371093-2.71875 12.8125v163.75h-1.746093c-2.40625-12.890626-10.941407-23.78125-23.132813-28.820313-31.308594-12.9375-57.761718-34.753906-76.511718-63.089844-19.238282-29.082031-28.859376-63-27.824219-98.085937 2.546875-86.273438 71.929687-158.050782 157.960937-163.40625 3.660156-.226563 7.300782-.339844 10.929688-.339844 43.175781 0 83.839844 16.039062 115.492187 45.785156 34.335938 32.265625 53.25 75.972656 53.25 123.070313 0 34.070312-10.101562 66.894531-29.210937 94.925781zm0 0"/><path d="m119.726562 176.359375h-48.097656c-4.140625 0-7.5 3.355469-7.5 7.5 0 4.140625 3.359375 7.5 7.5 7.5h48.097656c4.140626 0 7.5-3.359375 7.5-7.5 0-4.144531-3.359374-7.5-7.5-7.5zm0 0"/><path d="m132.066406 138.449219-24.070312-16.847657c-3.394532-2.375-8.070313-1.550781-10.445313 1.84375-2.375 3.390626-1.550781 8.070313 1.839844 10.445313l24.074219 16.847656c1.308594.917969 2.808594 1.355469 4.292968 1.355469 2.363282 0 4.691407-1.113281 6.148438-3.199219 2.378906-3.390625 1.550781-8.070312-1.839844-10.445312zm0 0"/><path d="m115.421875 222.605469-16.03125 11.222656c-3.390625 2.375-4.21875 7.050781-1.839844 10.441406 1.457031 2.085938 3.785157 3.203125 6.148438 3.203125 1.484375 0 2.984375-.441406 4.292969-1.355468l16.03125-11.222657c3.394531-2.378906 4.21875-7.054687 1.84375-10.445312-2.375-3.394531-7.050782-4.21875-10.445313-1.84375zm0 0"/><path d="m296.078125 176.359375h-48.097656c-4.140625 0-7.5 3.355469-7.5 7.5 0 4.140625 3.359375 7.5 7.5 7.5h48.097656c4.140625 0 7.5-3.359375 7.5-7.5 0-4.144531-3.355469-7.5-7.5-7.5zm0 0"/><path d="m268.316406 133.890625c3.394532-2.375 4.21875-7.054687 1.839844-10.445313-2.375-3.394531-7.050781-4.21875-10.441406-1.84375l-24.074219 16.847657c-3.390625 2.375-4.21875 7.054687-1.839844 10.445312 1.457031 2.085938 3.785157 3.203125 6.148438 3.203125 1.484375 0 2.984375-.441406 4.292969-1.359375zm0 0"/><path d="m268.316406 233.824219-16.03125-11.222657c-3.394531-2.371093-8.070312-1.546874-10.445312 1.847657-2.375 3.390625-1.550782 8.066406 1.84375 10.441406l16.03125 11.222656c1.308594.917969 2.808594 1.355469 4.292968 1.355469 2.363282 0 4.691407-1.113281 6.148438-3.199219 2.378906-3.390625 1.550781-8.066406-1.839844-10.445312zm0 0"/></svg>
